<?xml version="1.0" encoding="UTF-8" standalone="no"?>
<!DOCTYPE svg PUBLIC "-//W3C//DTD SVG 1.1//EN" "http://www.w3.org/Graphics/SVG/1.1/DTD/svg11.dtd">
<svg xmlns="http://www.w3.org/2000/svg" xmlns:xl="http://www.w3.org/1999/xlink" version="1.1" viewBox="445 238 325 325" width="325pt" height="325pt" xmlns:dc="http://purl.org/dc/elements/1.1/"><metadata> Produced by OmniGraffle 6.5 <dc:date>2016-01-28 16:04:35 +0000</dc:date></metadata><defs><linearGradient x1="0" x2="1" id="Gradient" gradientUnits="userSpaceOnUse"><stop offset="0" stop-color="#3a8eed"/><stop offset="1" stop-color="#3077c8"/></linearGradient><linearGradient id="Obj_Gradient" xl:href="#Gradient" gradientTransform="translate(607.5 252) rotate(90) scale(297)"/><linearGradient x1="0" x2="1" id="Gradient_2" gradientUnits="userSpaceOnUse"><stop offset="0" stop-color="#68bc36"/><stop offset="1" stop-color="#59a12e"/></linearGradient><linearGradient id="Obj_Gradient_2" xl:href="#Gradient_2" gradientTransform="translate(608.26775 251.99993) rotate(90) scale(297.00015)"/></defs><g stroke="none" stroke-opacity="1" stroke-dasharray="none" fill="none" fill-opacity="1"><title>Canvas 1</title><g><title>Layer 1</title><circle cx="607.5" cy="400.5" r="148.50024" fill="url(#Obj_Gradient)"/><path d="M 696.73623 281.7792 L 623.07565 286.93005 L 622.67123 276.90932 L 683.16195 272.6794 C 655.70697 256.40103 624.13477 249.73312 593.3068 252.67563 L 591.91344 287.20021 L 517.93554 282.02717 C 512.56002 286.10174 507.39857 290.59092 502.49476 295.49476 C 498.7153 299.27419 495.18217 303.20665 491.89534 307.2722 L 590.82417 314.18998 L 590.51665 321.8098 L 486.388 314.52841 C 480.5093 322.78897 475.57695 331.51613 471.591 340.55964 L 589.42737 348.79956 L 589.04613 358.246 L 467.89465 349.77426 C 464.75164 358.44203 462.4416 367.34382 460.96449 376.3556 L 587.95685 385.23576 L 586.12422 430.6443 L 460.53542 421.86228 C 461.88388 431.18988 464.12048 440.41378 467.24523 449.39742 L 585.03495 457.63407 L 584.6754 466.543 L 470.78586 458.57906 C 474.94956 468.38918 480.21645 477.84248 486.58655 486.7499 L 583.58612 493.53276 L 583.22657 502.44168 L 493.93662 496.19792 C 496.63323 499.39065 499.48594 502.49644 502.49476 505.50524 C 510.22578 513.2363 518.59715 519.93674 527.43814 525.60655 L 582.1373 529.43144 L 581.44 546.7087 C 598.6681 549.76387 616.3319 549.76387 633.56 546.7087 L 632.84817 529.07123 L 688.19 525.20135 C 696.7995 519.61838 704.95755 513.05297 712.50524 505.50524 C 715.6345 502.376 718.5949 499.14184 721.38647 495.8141 L 631.7589 502.08147 L 629.9505 457.27385 L 747.883 449.0272 C 750.9812 440.04322 753.1925 430.82118 754.51687 421.49738 L 628.86124 430.2841 L 628.48107 420.86429 L 755.55854 411.97816 C 756.25225 402.9758 756.12853 393.92228 755.18737 384.93818 L 627.3918 393.87452 L 627.03224 384.9656 L 753.99136 376.08775 C 752.49737 367.07585 750.17 358.17524 747.00926 349.51004 L 625.94297 357.97584 L 624.16493 313.91981 L 722.8969 307.0158 C 719.66906 303.04126 716.20518 299.19468 712.50524 295.49476 C 707.5017 290.49119 702.22993 285.91932 696.73623 281.77916 Z" fill="url(#Obj_Gradient_2)"/><circle cx="607.5" cy="400.5" r="148.50024" stroke="#003776" stroke-linecap="round" stroke-linejoin="round" stroke-width="13"/></g></g></svg>
